<svg id="eVDcKPeaO4T1" xmlns="http://www.w3.org/2000/svg" xmlns:xlink="http://www.w3.org/1999/xlink" viewBox="0 0 111 30" shape-rendering="geometricPrecision" text-rendering="geometricPrecision"><g transform="matrix(.860462 0 0 1 7.661859-.081798)"><path d="M30.749836,15.592839c-2.062049,0-4.499953,0-6.249883.094667v6.968788c2.750024-.188396,5.500047-.406786,8.281001-.500516v4.499954L19.812541,27.687693v-27.687693h12.968413v4.687412h-8.281001v6.311744c1.812729,0,4.593683-.093729,6.249883-.093729v4.687412ZM4.781142,12.968413v16.374543C3.094011,29.531353,1.593401,29.749742,0,30L0,0h4.469022l6.093355,17.031587v-17.031587h4.687412v28.061674c-1.6562.282126-3.343331.375855-5.125129.625176L4.781142,12.968413Z" transform="matrix(.999996 0 0 1-8.983475 0.081798)" fill="#dc2626"/><path d="M103.879296,13.804006l5.320937,13.396178c-1.568391-.22538-3.298492,0-4.732895,0l-2.997333-7.8233-3.080498,7.176704c-1.505215,0-3.218862.19668-4.73097,0l5.263568-12.749583L94.384102,0.942999h4.538002l2.744474,7.091449l2.941049-7.091449h4.592605l-5.320937,12.861007Z" transform="matrix(.999996 0 0 1-66.869859-1.021736)" fill="#dc2626"/><path d="M105.06233,14.280626L110.999156,30c-1.749929-.250258-3.498922-.563314-5.280719-.844503l-3.344269-8.686849-3.43706,7.968881c-1.687131-.281188-3.344269-.375855-5.0314-.594245l5.625645-13.562658L94.468085,0h5.063268l3.062142,7.874215L105.874965,0h5.124191L105.06233,14.280626ZM90.468648,0h-4.593683v27.249977c1.499672.093729,3.062143.155591,4.593683.34305v-27.593027ZM81.905521,26.93692c-4.186897-.281188-8.374731-.530509-12.655357-.625176v-26.311744h4.686475v21.87459c2.688162.062799,5.375387.281188,7.968882.405849v4.656481ZM64.249695,10.656107v4.687412h-6.405473v10.656106h-4.625551v-25.999625h13.124941v4.687412h-8.49939v5.968695h6.405473ZM45.343519,4.687412v21.562471c-1.562471,0-3.155872,0-4.687412.061861v-21.624332h-4.843941v-4.687412h14.406224v4.687412h-4.874871Z" transform="matrix(.999996 0 0 1 9.075155 0.000001)" fill="#dc2626"/></g><path d="" transform="translate(.000001 0.000001)" fill="none" stroke="#3f5787" stroke-width="0.5"/></svg>